<svg xmlns="http://www.w3.org/2000/svg" xmlns:xlink="http://www.w3.org/1999/xlink" width="500" zoomAndPan="magnify" viewBox="0 0 375 374.999991" height="500" preserveAspectRatio="xMidYMid meet" version="1.2"><defs><clipPath id="d78a70894a"><path d="M 0 10.589844 L 374.449219 10.589844 L 374.449219 364.332031 L 0 364.332031 Z M 0 10.589844 "/></clipPath></defs><g id="5c83007cf4"><rect x="0" width="375" y="0" height="374.999991" style="fill:#ffffff;fill-opacity:1;stroke:none;"/><rect x="0" width="375" y="0" height="374.999991" style="fill:#ffffff;fill-opacity:1;stroke:none;"/><g clip-rule="nonzero" clip-path="url(#d78a70894a)"><path style=" stroke:none;fill-rule:nonzero;fill:#000000;fill-opacity:1;" d="M 374.425781 187.460938 C 374.425781 211.324219 369.757812 234.480469 360.550781 256.277344 C 351.65625 277.332031 338.925781 296.242188 322.707031 312.472656 C 306.492188 328.707031 287.609375 341.457031 266.585938 350.363281 C 244.816406 359.582031 221.691406 364.257812 197.855469 364.257812 C 162.941406 364.257812 129.183594 354.066406 100.226562 334.796875 C 71.992188 316 49.859375 289.699219 36.214844 258.726562 C 35.921875 258.054688 36.226562 257.273438 36.890625 256.980469 C 37.558594 256.683594 38.339844 256.988281 38.632812 257.65625 C 66.445312 320.808594 128.945312 361.613281 197.855469 361.613281 C 293.757812 361.613281 371.78125 283.484375 371.78125 187.460938 C 371.78125 91.433594 293.757812 13.308594 197.855469 13.308594 C 118.289062 13.308594 48.984375 67.144531 29.324219 144.234375 C 29.144531 144.945312 28.421875 145.367188 27.71875 145.1875 C 27.007812 145.007812 26.585938 144.289062 26.765625 143.578125 C 31.574219 124.726562 39.441406 106.890625 50.136719 90.570312 C 60.660156 74.515625 73.640625 60.351562 88.722656 48.464844 C 103.953125 36.460938 120.902344 27.113281 139.101562 20.683594 C 157.933594 14.035156 177.703125 10.664062 197.855469 10.664062 C 221.691406 10.664062 244.816406 15.335938 266.585938 24.554688 C 287.609375 33.460938 306.496094 46.207031 322.707031 62.445312 C 338.921875 78.683594 351.65625 97.589844 360.550781 118.640625 C 369.753906 140.4375 374.425781 163.59375 374.425781 187.460938 Z M 32.429688 241.539062 C 32.664062 242.257812 32.921875 242.992188 32.625 243.761719 C 32.433594 244.246094 32.128906 244.59375 31.578125 244.609375 C 31.070312 244.621094 30.757812 244.320312 30.589844 243.875 C 30.25 242.980469 29.964844 242.058594 29.597656 241.171875 C 27.875 236.957031 24.804688 233.878906 21.25 231.1875 C 16.757812 227.789062 12.019531 224.679688 8.179688 220.492188 C 3.828125 215.734375 1.121094 210.152344 0.105469 203.773438 C -0.00390625 203.09375 -0.0078125 202.414062 0.148438 201.746094 C 0.503906 200.285156 1.703125 199.890625 2.863281 200.855469 C 3.136719 201.082031 3.386719 201.351562 3.597656 201.640625 C 6.148438 205.117188 9.289062 208.011719 12.496094 210.859375 C 16.585938 214.492188 20.082031 218.644531 23.144531 223.175781 C 23.355469 223.488281 23.511719 224.066406 23.925781 223.96875 C 24.496094 223.839844 24.238281 223.226562 24.226562 222.828125 C 24.082031 218.449219 24.789062 214.128906 25.058594 209.78125 C 25.40625 204.144531 25.53125 198.507812 25.089844 192.875 C 24.914062 190.605469 24.75 188.328125 24.652344 186.050781 C 24.628906 185.410156 24.46875 185.074219 23.8125 185.027344 C 19.042969 184.660156 15.746094 182.011719 12.980469 178.316406 C 11.066406 175.757812 8.933594 173.359375 6.589844 171.160156 C 5.414062 170.058594 5.394531 169.242188 6.71875 168.328125 C 7.785156 167.597656 7.777344 166.980469 7.257812 165.890625 C 5.339844 161.882812 5.707031 160.703125 9.503906 158.332031 C 13.296875 155.953125 17.539062 154.613281 21.773438 153.316406 C 23.320312 152.847656 24.921875 152.804688 25.957031 154.667969 C 26.003906 154.441406 26.058594 154.222656 26.097656 153.996094 C 26.433594 152.019531 27.078125 151.433594 29.058594 151.484375 C 30.664062 151.523438 32.246094 151.390625 33.828125 151.144531 C 35.464844 150.886719 37.101562 151.214844 38.71875 151.429688 C 39.929688 151.589844 40.652344 152.460938 41.148438 153.539062 C 41.675781 154.671875 41.988281 155.875 42.25 157.085938 C 43.042969 160.765625 43.820312 164.441406 43.195312 168.246094 C 42.890625 170.105469 42.132812 171.738281 41.058594 173.273438 C 38.078125 177.535156 34.167969 180.753906 29.621094 183.121094 C 27.46875 184.242188 26.746094 185.625 26.992188 187.957031 C 27.5 192.734375 27.839844 197.527344 27.734375 202.335938 C 27.730469 202.597656 27.640625 202.984375 27.976562 203.054688 C 28.492188 203.160156 28.476562 202.625 28.609375 202.339844 C 31.730469 195.496094 36.488281 189.960938 42.183594 185.160156 C 43.011719 184.460938 43.886719 183.828125 44.902344 183.425781 C 45.539062 183.175781 46.179688 183.160156 46.679688 183.707031 C 47.179688 184.257812 47.113281 184.886719 46.757812 185.484375 C 46.0625 186.652344 45.363281 187.816406 44.640625 188.96875 C 44.183594 189.695312 43.835938 190.46875 43.84375 191.328125 C 43.890625 196.355469 42.027344 200.867188 40.105469 205.363281 C 37.578125 211.277344 33.9375 216.542969 29.867188 221.398438 C 26.519531 225.394531 27.128906 229.09375 28.886719 233.28125 C 30.050781 236.046875 31.507812 238.679688 32.429688 241.539062 Z M 41.316406 193.710938 C 36.539062 200.476562 34.4375 208.199219 31.203125 215.398438 C 31.230469 215.445312 31.265625 215.492188 31.300781 215.535156 C 31.367188 215.492188 31.449219 215.460938 31.496094 215.402344 C 35.730469 209.835938 38.75 203.644531 40.816406 196.980469 C 41.121094 196 41.382812 194.980469 41.316406 193.710938 Z M 27.96875 216.277344 C 29.257812 214.085938 30.214844 212.121094 31 210.054688 C 33.371094 203.8125 35.796875 197.597656 39.597656 192.03125 C 40.050781 191.371094 40.617188 190.710938 40.628906 189.824219 C 40.5625 189.84375 40.484375 189.863281 40.433594 189.90625 C 34.75 195.257812 30.621094 201.558594 28.738281 209.214844 C 28.203125 211.417969 27.859375 213.671875 27.96875 216.277344 Z M 7.625 210.101562 C 7.730469 210.511719 8.027344 210.792969 8.316406 211.0625 C 11.808594 214.246094 14.910156 217.808594 18.089844 221.285156 C 18.625 221.871094 19.234375 222.394531 19.878906 223.019531 C 20.027344 222.484375 19.769531 222.289062 19.617188 222.085938 C 17.09375 218.773438 14.394531 215.617188 11.277344 212.835938 C 10.152344 211.835938 9.15625 210.675781 7.796875 209.964844 C 7.75 210.015625 7.691406 210.066406 7.625 210.101562 Z M 21.917969 228.710938 C 21.949219 228.207031 21.53125 227.964844 21.253906 227.671875 C 19.3125 225.671875 17.222656 223.808594 15.414062 221.691406 C 11.832031 217.484375 7.691406 213.800781 4.179688 209.527344 C 4.050781 210 4.363281 210.351562 4.53125 210.734375 C 6.667969 215.550781 9.828125 219.558594 13.992188 222.78125 C 16.605469 224.792969 19.125 226.941406 21.917969 228.710938 Z M 37.851562 160.097656 C 36.242188 160.398438 34.640625 160.730469 33.039062 161.074219 C 32.1875 161.253906 31.480469 161.628906 31.140625 162.53125 C 28.855469 168.59375 27.910156 174.867188 28.199219 181.335938 C 28.273438 181.347656 28.367188 181.394531 28.425781 181.367188 C 28.648438 181.273438 28.867188 181.171875 29.070312 181.050781 C 32.59375 178.871094 35.753906 176.328125 38.40625 173.066406 C 41.078125 169.78125 41.488281 166.140625 40.910156 162.222656 C 40.597656 160.132812 39.898438 159.714844 37.851562 160.097656 Z M 29.113281 155.429688 C 30.5 155.296875 31.878906 155.039062 33.269531 154.980469 C 35.21875 154.902344 35.875 155.5 36.082031 157.40625 C 36.136719 157.917969 36.261719 158.160156 36.796875 158.007812 C 37.695312 157.757812 38.613281 157.71875 39.527344 157.796875 C 40.132812 157.851562 40.175781 157.597656 40.085938 157.101562 C 39.542969 154.027344 38.796875 153.382812 35.6875 153.328125 C 35.570312 153.328125 35.449219 153.328125 35.328125 153.328125 C 33.21875 153.417969 31.144531 153.929688 29.011719 153.792969 C 28.113281 153.738281 28.347656 154.574219 28.277344 155.03125 C 28.171875 155.761719 28.796875 155.460938 29.113281 155.429688 Z M 9.503906 165.777344 C 9.5625 165.902344 9.71875 166.039062 9.84375 166.054688 C 10.4375 166.140625 12.054688 164.640625 11.933594 164.066406 C 11.46875 161.953125 12.542969 160.730469 14.273438 159.875 C 16.996094 158.527344 19.824219 157.460938 22.738281 156.609375 C 23.105469 156.503906 23.738281 156.546875 23.589844 155.871094 C 23.445312 155.238281 22.902344 155.46875 22.496094 155.496094 C 22.183594 155.519531 21.867188 155.605469 21.566406 155.714844 C 18.6875 156.769531 15.792969 157.789062 12.945312 158.921875 C 11.574219 159.464844 10.355469 160.335938 9.148438 161.1875 C 8.730469 161.484375 8.304688 161.808594 8.292969 162.457031 C 8.550781 163.585938 8.964844 164.707031 9.503906 165.777344 Z M 24.773438 176.730469 C 23.71875 172.636719 21.792969 168.992188 19.074219 165.773438 C 17.6875 164.128906 16.339844 163.785156 15.066406 164.933594 C 13.28125 166.546875 11.371094 167.964844 9.308594 169.195312 C 8.710938 169.550781 8.570312 169.855469 9.160156 170.449219 C 11.320312 172.636719 13.328125 174.96875 15.222656 177.394531 C 17.234375 179.972656 19.492188 182.113281 22.957031 182.542969 C 25.445312 182.851562 25.238281 183.394531 25.292969 180.410156 C 25.367188 179.292969 25.097656 178.007812 24.773438 176.730469 Z M 26.1875 173.410156 C 26.542969 169.59375 27.578125 166.140625 28.636719 162.683594 C 29.335938 160.421875 30.636719 159 33.0625 158.765625 C 33.742188 158.699219 34.054688 158.339844 33.980469 157.644531 C 33.890625 156.84375 33.300781 157.097656 32.882812 157.144531 C 28.726562 157.617188 24.558594 158.054688 20.636719 159.675781 C 18.804688 160.433594 16.878906 160.972656 15.203125 162.105469 C 17.582031 161.527344 19.289062 162.546875 20.742188 164.222656 C 22.058594 165.734375 23.210938 167.367188 24.121094 169.15625 C 24.8125 170.496094 25.4375 171.863281 26.1875 173.410156 Z M 26.1875 173.410156 "/></g><g style="fill:#000000;fill-opacity:1;"><g transform="translate(182.197714, 270.943465)"><path style="stroke:none" d="M 126.265625 -2.21875 C 126.515625 -2.21875 126.640625 -1.847656 126.640625 -1.109375 C 126.640625 -0.367188 126.515625 0 126.265625 0 L 102.421875 0 C 99.335938 0 93.539062 -5.113281 85.03125 -15.34375 C 76.53125 -25.570312 66.425781 -39.625 54.71875 -57.5 C 51.394531 -56.757812 47.945312 -56.390625 44.375 -56.390625 C 43.632812 -56.390625 40.859375 -56.570312 36.046875 -56.9375 L 36.046875 -14.96875 C 36.046875 -11.15625 36.414062 -8.382812 37.15625 -6.65625 C 37.894531 -4.925781 39.34375 -3.753906 41.5 -3.140625 C 43.65625 -2.523438 47.078125 -2.21875 51.765625 -2.21875 C 52.128906 -2.21875 52.3125 -1.847656 52.3125 -1.109375 C 52.3125 -0.367188 52.128906 0 51.765625 0 C 47.941406 0 44.921875 -0.0625 42.703125 -0.1875 L 29.953125 -0.375 L 17.375 -0.1875 C 15.15625 -0.0625 12.015625 0 7.953125 0 C 7.703125 0 7.578125 -0.367188 7.578125 -1.109375 C 7.578125 -1.847656 7.703125 -2.21875 7.953125 -2.21875 C 12.628906 -2.21875 16.078125 -2.523438 18.296875 -3.140625 C 20.515625 -3.753906 22.023438 -4.953125 22.828125 -6.734375 C 23.628906 -8.523438 24.03125 -11.269531 24.03125 -14.96875 L 24.03125 -100.578125 C 24.03125 -104.273438 23.660156 -106.984375 22.921875 -108.703125 C 22.179688 -110.429688 20.734375 -111.632812 18.578125 -112.3125 C 16.421875 -112.988281 13 -113.328125 8.3125 -113.328125 C 7.945312 -113.328125 7.765625 -113.695312 7.765625 -114.4375 C 7.765625 -115.175781 7.945312 -115.546875 8.3125 -115.546875 L 17.375 -115.359375 C 22.550781 -115.117188 26.742188 -115 29.953125 -115 C 32.660156 -115 35.1875 -115.054688 37.53125 -115.171875 C 39.875 -115.296875 41.847656 -115.421875 43.453125 -115.546875 C 48.003906 -115.910156 52.128906 -116.09375 55.828125 -116.09375 C 65.566406 -116.09375 73.085938 -113.875 78.390625 -109.4375 C 83.691406 -105.007812 86.34375 -99.097656 86.34375 -91.703125 C 86.34375 -85.046875 84.398438 -79.035156 80.515625 -73.671875 C 76.628906 -68.304688 71.484375 -64.085938 65.078125 -61.015625 C 75.429688 -46.097656 84.148438 -34.414062 91.234375 -25.96875 C 98.316406 -17.53125 104.597656 -11.460938 110.078125 -7.765625 C 115.566406 -4.066406 120.960938 -2.21875 126.265625 -2.21875 Z M 36.046875 -61.375 C 39.128906 -60.882812 42.765625 -60.640625 46.953125 -60.640625 C 56.566406 -60.640625 63.4375 -62.734375 67.5625 -66.921875 C 71.695312 -71.109375 73.765625 -77.582031 73.765625 -86.34375 C 73.765625 -95.945312 71.640625 -102.84375 67.390625 -107.03125 C 63.140625 -111.226562 56.945312 -113.328125 48.8125 -113.328125 C 44 -113.328125 40.664062 -112.460938 38.8125 -110.734375 C 36.96875 -109.015625 36.046875 -105.503906 36.046875 -100.203125 Z M 36.046875 -61.375 "/></g></g><g style="fill:#000000;fill-opacity:1;"><g transform="translate(90.23554, 214.149374)"><path style="stroke:none" d="M 126.265625 -2.21875 C 126.515625 -2.21875 126.640625 -1.847656 126.640625 -1.109375 C 126.640625 -0.367188 126.515625 0 126.265625 0 L 102.421875 0 C 99.335938 0 93.539062 -5.113281 85.03125 -15.34375 C 76.53125 -25.570312 66.425781 -39.625 54.71875 -57.5 C 51.394531 -56.757812 47.945312 -56.390625 44.375 -56.390625 C 43.632812 -56.390625 40.859375 -56.570312 36.046875 -56.9375 L 36.046875 -14.96875 C 36.046875 -11.15625 36.414062 -8.382812 37.15625 -6.65625 C 37.894531 -4.925781 39.34375 -3.753906 41.5 -3.140625 C 43.65625 -2.523438 47.078125 -2.21875 51.765625 -2.21875 C 52.128906 -2.21875 52.3125 -1.847656 52.3125 -1.109375 C 52.3125 -0.367188 52.128906 0 51.765625 0 C 47.941406 0 44.921875 -0.0625 42.703125 -0.1875 L 29.953125 -0.375 L 17.375 -0.1875 C 15.15625 -0.0625 12.015625 0 7.953125 0 C 7.703125 0 7.578125 -0.367188 7.578125 -1.109375 C 7.578125 -1.847656 7.703125 -2.21875 7.953125 -2.21875 C 12.628906 -2.21875 16.078125 -2.523438 18.296875 -3.140625 C 20.515625 -3.753906 22.023438 -4.953125 22.828125 -6.734375 C 23.628906 -8.523438 24.03125 -11.269531 24.03125 -14.96875 L 24.03125 -100.578125 C 24.03125 -104.273438 23.660156 -106.984375 22.921875 -108.703125 C 22.179688 -110.429688 20.734375 -111.632812 18.578125 -112.3125 C 16.421875 -112.988281 13 -113.328125 8.3125 -113.328125 C 7.945312 -113.328125 7.765625 -113.695312 7.765625 -114.4375 C 7.765625 -115.175781 7.945312 -115.546875 8.3125 -115.546875 L 17.375 -115.359375 C 22.550781 -115.117188 26.742188 -115 29.953125 -115 C 32.660156 -115 35.1875 -115.054688 37.53125 -115.171875 C 39.875 -115.296875 41.847656 -115.421875 43.453125 -115.546875 C 48.003906 -115.910156 52.128906 -116.09375 55.828125 -116.09375 C 65.566406 -116.09375 73.085938 -113.875 78.390625 -109.4375 C 83.691406 -105.007812 86.34375 -99.097656 86.34375 -91.703125 C 86.34375 -85.046875 84.398438 -79.035156 80.515625 -73.671875 C 76.628906 -68.304688 71.484375 -64.085938 65.078125 -61.015625 C 75.429688 -46.097656 84.148438 -34.414062 91.234375 -25.96875 C 98.316406 -17.53125 104.597656 -11.460938 110.078125 -7.765625 C 115.566406 -4.066406 120.960938 -2.21875 126.265625 -2.21875 Z M 36.046875 -61.375 C 39.128906 -60.882812 42.765625 -60.640625 46.953125 -60.640625 C 56.566406 -60.640625 63.4375 -62.734375 67.5625 -66.921875 C 71.695312 -71.109375 73.765625 -77.582031 73.765625 -86.34375 C 73.765625 -95.945312 71.640625 -102.84375 67.390625 -107.03125 C 63.140625 -111.226562 56.945312 -113.328125 48.8125 -113.328125 C 44 -113.328125 40.664062 -112.460938 38.8125 -110.734375 C 36.96875 -109.015625 36.046875 -105.503906 36.046875 -100.203125 Z M 36.046875 -61.375 "/></g></g></g></svg>