<?xml version="1.0" encoding="UTF-8"?>
<!DOCTYPE svg PUBLIC "-//W3C//DTD SVG 1.1//EN" "http://www.w3.org/Graphics/SVG/1.1/DTD/svg11.dtd">
<svg xmlns="http://www.w3.org/2000/svg" version="1.1" width="500px" height="500px" style="shape-rendering:geometricPrecision; text-rendering:geometricPrecision; image-rendering:optimizeQuality; fill-rule:evenodd; clip-rule:evenodd" xmlns:xlink="http://www.w3.org/1999/xlink">
<g><path style="opacity:1" fill="#fefefe" d="M -0.5,-0.5 C 166.167,-0.5 332.833,-0.5 499.5,-0.5C 499.5,166.167 499.5,332.833 499.5,499.5C 332.833,499.5 166.167,499.5 -0.5,499.5C -0.5,332.833 -0.5,166.167 -0.5,-0.5 Z"/></g>
<g><path style="opacity:1" fill="#161616" d="M 250.5,49.5 C 327.975,48.3154 388.142,79.6488 431,143.5C 459.785,190.677 468.118,241.344 456,295.5C 438.88,359.951 400.047,406.118 339.5,434C 269.088,460.997 203.088,452.997 141.5,410C 113.157,388.466 92.1569,361.3 78.5,328.5C 79.675,328.281 80.675,328.614 81.5,329.5C 112.556,394.878 163.89,433.378 235.5,445C 308.81,452.075 368.977,427.575 416,371.5C 460.711,310.484 469.711,244.484 443,173.5C 412.102,106.102 359.936,66.2688 286.5,54C 209.776,47.1249 147.942,73.9582 101,134.5C 86.5041,154.828 76.3374,177.161 70.5,201.5C 69.5,201.5 68.5,201.5 67.5,201.5C 86.1663,133.331 128.5,86.4977 194.5,61C 212.826,54.6742 231.492,50.8409 250.5,49.5 Z"/></g>
<g><path style="opacity:1" fill="#0a0a0a" d="M 190.5,146.5 C 203.224,144.898 215.224,147.064 226.5,153C 236.473,161.816 239.307,172.65 235,185.5C 230.467,195.866 223.3,203.866 213.5,209.5C 226.744,230.254 242.077,249.42 259.5,267C 263,269.167 266.5,271.333 270,273.5C 270.667,255.5 270.667,237.5 270,219.5C 269.167,217.333 267.667,215.833 265.5,215C 261.204,214.036 256.87,213.203 252.5,212.5C 273.159,211.349 293.826,210.849 314.5,211C 336.454,215.077 344.621,227.91 339,249.5C 334.467,259.866 327.3,267.866 317.5,273.5C 330.744,294.254 346.077,313.42 363.5,331C 370.411,336.121 378.077,339.621 386.5,341.5C 381.667,341.833 376.833,342.167 372,342.5C 366.393,342.62 360.893,342.12 355.5,341C 347.627,334.795 340.794,327.628 335,319.5C 325.305,305.971 315.805,292.305 306.5,278.5C 299.217,278.112 291.884,278.112 284.5,278.5C 284.333,297.17 284.5,315.836 285,334.5C 286.251,337.381 288.417,339.214 291.5,340C 295.211,340.175 298.878,340.675 302.5,341.5C 285.833,342.833 269.167,342.833 252.5,341.5C 257.383,341.05 262.05,339.884 266.5,338C 268.049,336.786 269.215,335.286 270,333.5C 270.5,315.17 270.667,296.836 270.5,278.5C 264.824,278.666 259.157,278.499 253.5,278C 244.667,271.833 237.167,264.333 231,255.5C 221.305,241.971 211.805,228.305 202.5,214.5C 195.217,214.112 187.884,214.112 180.5,214.5C 180.333,233.17 180.5,251.836 181,270.5C 182.251,273.381 184.417,275.214 187.5,276C 191.211,276.175 194.878,276.675 198.5,277.5C 181.833,278.833 165.167,278.833 148.5,277.5C 153.383,277.05 158.05,275.884 162.5,274C 164.049,272.786 165.215,271.286 166,269.5C 166.667,231.5 166.667,193.5 166,155.5C 165.167,153.333 163.667,151.833 161.5,151C 157.204,150.036 152.87,149.203 148.5,148.5C 162.661,147.833 176.661,147.167 190.5,146.5 Z"/></g>
<g><path style="opacity:1" fill="#fcfcfc" d="M 187.5,149.5 C 199.567,147.385 209.734,150.718 218,159.5C 219.608,162.382 220.941,165.382 222,168.5C 222.667,175.833 222.667,183.167 222,190.5C 219.486,201.356 212.653,207.523 201.5,209C 194.508,209.5 187.508,209.666 180.5,209.5C 180.333,191.83 180.5,174.164 181,156.5C 181.991,153.011 184.158,150.677 187.5,149.5 Z"/></g>
<g><path style="opacity:1" fill="#151515" d="M 68.5,208.5 C 73.1785,208.334 77.8452,208.501 82.5,209C 87.9191,218.313 87.7525,227.48 82,236.5C 77.9518,240.216 73.6185,243.55 69,246.5C 68.3333,253.5 68.3333,260.5 69,267.5C 73.9367,258.068 80.7701,250.401 89.5,244.5C 87.6868,262.148 80.8534,277.815 69,291.5C 68.3333,293.833 68.3333,296.167 69,298.5C 71.4103,303.314 73.2436,308.314 74.5,313.5C 73.5,313.5 72.5,313.5 71.5,313.5C 70.824,309.813 69.324,306.48 67,303.5C 58.3957,297.895 50.7291,291.228 44,283.5C 39.8974,277.85 38.064,271.684 38.5,265C 39.1667,264.333 39.8333,264.333 40.5,265C 49.0771,273.073 57.0771,281.573 64.5,290.5C 66.5896,275.866 66.9229,261.2 65.5,246.5C 62.2065,246.741 59.2065,245.908 56.5,244C 53.0349,239.533 49.2016,235.367 45,231.5C 45.6871,228.173 45.5204,224.839 44.5,221.5C 44.8757,219.617 45.8757,218.117 47.5,217C 52.0025,214.61 56.6692,212.61 61.5,211C 63.235,210.349 64.9017,210.515 66.5,211.5C 67.4252,210.643 68.0919,209.643 68.5,208.5 Z"/></g>
<g><path style="opacity:1" fill="#e9e9e9" d="M 69.5,211.5 C 73.5138,211.334 77.5138,211.501 81.5,212C 82.3802,213.356 82.7135,214.856 82.5,216.5C 81.1667,216.5 79.8333,216.5 78.5,216.5C 78.67,215.178 78.3366,214.011 77.5,213C 74.9009,212.231 72.4009,212.398 70,213.5C 69.5357,212.906 69.369,212.239 69.5,211.5 Z"/></g>
<g><path style="opacity:1" fill="#fcfcfc" d="M 291.5,213.5 C 303.567,211.385 313.734,214.718 322,223.5C 323.608,226.382 324.941,229.382 326,232.5C 326.667,239.833 326.667,247.167 326,254.5C 323.486,265.356 316.653,271.523 305.5,273C 298.508,273.5 291.508,273.666 284.5,273.5C 284.333,255.83 284.5,238.164 285,220.5C 285.991,217.011 288.158,214.677 291.5,213.5 Z"/></g>
<g><path style="opacity:1" fill="#ebebeb" d="M 67.5,215.5 C 70.2469,215.187 72.9135,215.52 75.5,216.5C 73.8068,217.228 72.3068,218.228 71,219.5C 69.1635,224.011 67.8302,228.677 67,233.5C 65.382,227.572 61.882,223.239 56.5,220.5C 60.1176,218.521 63.7843,216.854 67.5,215.5 Z"/></g>
<g><path style="opacity:1" fill="#d9d9d9" d="M 60.5,213.5 C 61.8734,213.343 63.2068,213.51 64.5,214C 60.5811,215.862 56.5811,217.529 52.5,219C 51.9941,221.532 50.8274,223.698 49,225.5C 47.3314,223.647 47.1647,221.647 48.5,219.5C 52.4812,217.295 56.4812,215.295 60.5,213.5 Z"/></g>
<g><path style="opacity:1" fill="#f5f5f5" d="M 77.5,218.5 C 79.5,218.5 81.5,218.5 83.5,218.5C 84.0688,223.777 83.2355,228.777 81,233.5C 69.3983,246.537 66.065,244.203 71,226.5C 71.6667,224.5 72.3333,222.5 73,220.5C 74.6225,219.901 76.1225,219.234 77.5,218.5 Z"/></g>
<g><path style="opacity:1" fill="#f3f3f3" d="M 54.5,223.5 C 55.8734,223.343 57.2068,223.51 58.5,224C 63.62,229.857 66.2866,236.691 66.5,244.5C 63.5755,244.54 60.9088,243.707 58.5,242C 54.4803,238.115 50.8136,233.948 47.5,229.5C 50.0912,227.719 52.4245,225.719 54.5,223.5 Z"/></g>
<g><path style="opacity:1" fill="#dedede" d="M 82.5,252.5 C 83.0431,252.56 83.3764,252.893 83.5,253.5C 77.9511,261.983 73.4511,270.983 70,280.5C 70.6015,269.626 74.7681,260.293 82.5,252.5 Z"/></g>
<g><path style="opacity:1" fill="#e1e1e1" d="M 83.5,257.5 C 82.6016,264.976 79.7683,271.976 75,278.5C 76.6756,271.132 79.5089,264.132 83.5,257.5 Z"/></g>
<g><path style="opacity:1" fill="#a0a0a0" d="M 56.5,285.5 C 53.0359,282.538 49.7025,279.371 46.5,276C 47.1667,275.333 47.8333,275.333 48.5,276C 51.7768,278.766 54.4434,281.933 56.5,285.5 Z"/></g>
<g><path style="opacity:1" fill="#dcdcdc" d="M 42.5,275.5 C 48.6626,280.83 54.3293,286.663 59.5,293C 51.7398,289.404 46.0731,283.571 42.5,275.5 Z"/></g>
<g><path style="opacity:1" fill="#898989" d="M 56.5,285.5 C 57.9616,286.458 59.2949,287.624 60.5,289C 58.1589,289.168 56.8256,288.001 56.5,285.5 Z"/></g>
</svg>
